<?xml version="1.0" standalone="no"?>
<!DOCTYPE svg PUBLIC "-//W3C//DTD SVG 20010904//EN"
 "http://www.w3.org/TR/2001/REC-SVG-20010904/DTD/svg10.dtd">
<svg version="1.0" xmlns="http://www.w3.org/2000/svg"
 width="270.000000pt" height="270.000000pt" viewBox="0 0 270.000000 270.000000"
 preserveAspectRatio="xMidYMid meet">
<metadata>
Created by potrace 1.14, written by Peter Selinger 2001-2017
</metadata>
<g transform="translate(0.000000,270.000000) scale(0.100000,-0.100000)"
fill="#000000" stroke="none">
<path d="M1130 2637 c-32 -72 -42 -173 -38 -394 3 -207 3 -208 32 -263 45 -87
90 -136 154 -166 78 -38 201 -41 277 -6 133 61 170 144 194 437 6 72 17 167
23 213 8 57 9 88 2 99 -32 51 -84 42 -108 -18 -17 -42 -46 -271 -46 -364 0
-70 -26 -163 -56 -202 -35 -46 -75 -64 -148 -66 -54 -2 -69 2 -103 26 -92 64
-111 168 -92 505 12 205 11 213 -7 227 -37 28 -63 19 -84 -28z"/>
<path d="M866 2525 c-25 -26 -31 -81 -31 -295 1 -198 2 -208 29 -285 38 -110
79 -179 150 -250 63 -62 143 -110 233 -140 42 -13 82 -16 196 -13 l144 3 78
39 c204 104 296 278 344 649 14 103 10 122 -30 143 -28 14 -33 14 -55 -1 -13
-8 -24 -17 -24 -18 0 -31 -35 -251 -49 -312 -42 -177 -137 -308 -256 -356 -51
-20 -77 -24 -175 -24 -150 0 -213 23 -310 112 -101 93 -130 161 -151 358 -10
89 -10 136 -1 217 16 134 15 153 -4 172 -20 20 -68 21 -88 1z"/>
<path d="M593 2349 c-35 -13 -47 -69 -40 -186 16 -259 97 -459 248 -611 98
-99 214 -168 359 -214 67 -21 93 -23 250 -22 162 0 181 2 252 26 265 91 467
293 553 553 24 72 30 141 15 160 -13 16 -57 20 -77 7 -6 -4 -23 -38 -38 -77
-65 -173 -127 -277 -216 -361 -157 -149 -389 -216 -628 -180 -172 26 -302 101
-423 243 -103 121 -154 268 -169 488 -6 82 -15 155 -20 161 -14 17 -41 22 -66
13z"/>
<path d="M411 1859 c-34 -32 -25 -92 36 -220 47 -98 60 -116 168 -227 123
-128 126 -134 79 -173 -91 -75 -254 -415 -254 -529 0 -41 4 -52 24 -65 34 -22
68 -6 88 42 9 21 28 76 44 123 29 92 78 199 115 252 12 18 65 77 116 130 62
64 93 103 91 115 -2 10 -44 48 -93 85 -50 37 -117 96 -150 130 -62 65 -134
188 -154 264 -13 50 -46 94 -70 94 -9 0 -28 -10 -40 -21z"/>
<path d="M2183 1588 c-115 -130 -201 -204 -296 -257 -101 -55 -130 -82 -119
-110 3 -9 29 -43 57 -76 133 -157 185 -321 192 -609 2 -93 8 -177 13 -187 13
-24 45 -33 69 -19 65 34 61 384 -6 579 -31 92 -86 213 -114 252 -27 38 -19 58
38 93 70 44 244 223 268 275 17 39 18 46 4 70 -24 43 -61 40 -106 -11z"/>
<path d="M1150 1234 c-132 -27 -245 -92 -324 -188 -113 -139 -182 -354 -189
-589 -2 -78 0 -90 17 -103 11 -8 30 -14 41 -14 42 0 55 30 71 166 35 304 128
485 292 566 66 32 70 33 202 33 120 0 141 -3 190 -24 155 -67 250 -176 297
-342 15 -54 18 -102 18 -314 l0 -250 42 -3 c53 -4 58 5 78 137 43 287 -16 570
-153 732 -53 64 -162 132 -272 171 -55 20 -251 33 -310 22z"/>
<path d="M1184 966 c-58 -14 -128 -53 -161 -88 -36 -39 -80 -140 -91 -208 -6
-36 -14 -114 -17 -175 -4 -60 -13 -161 -21 -223 -15 -120 -11 -145 26 -157 11
-3 32 0 47 7 40 19 51 70 72 328 11 124 24 239 31 255 38 99 113 150 211 143
73 -5 130 -42 174 -113 29 -48 30 -51 34 -204 2 -86 -2 -227 -9 -315 -15 -178
-12 -191 41 -191 29 0 37 5 51 35 44 90 67 492 34 616 -43 165 -121 255 -252
289 -68 18 -101 18 -170 1z"/>
</g>
</svg>
